<svg width="420" height="120" viewBox="0 0 420 120" fill="none" xmlns="http://www.w3.org/2000/svg">

  <!-- Icon Background -->
  <rect x="8" y="8" width="104" height="90" rx="28" fill="#EAF5FF"/>

  <!-- Medical Heart -->
  <path
    d="M60 88
       C54 82 28 63 28 43
       C28 31 37 23 48 23
       C54 23 59 26 63 31
       C67 26 72 23 78 23
       C89 23 98 31 98 43
       C98 63 72 82 60 88Z"
    fill="#0879D9"
  />

  <!-- ECG Line -->
  <path
    d="M31 53
       H45
       L51 42
       L58 66
       L65 48
       L70 55
       H92"
    stroke="white"
    stroke-width="5"
    stroke-linecap="round"
    stroke-linejoin="round"
  />

  <!-- AI Spark -->
  <path
    d="M89 18
       C89 14 92 11 96 11
       C92 11 89 8 89 4
       C89 8 86 11 82 11
       C86 11 89 14 89 18Z"
    fill="#F4B942"
  />

  <!-- AI Dot -->
  <circle cx="101" cy="27" r="4" fill="#F4B942"/>

  <!-- Brand Name -->
  <text
    x="132"
    y="68"
    font-family="Arial, Helvetica, sans-serif"
    font-size="38"
    font-weight="700"
    fill="#0756B5"
  >
    AI
  </text>

  <text
    x="184"
    y="68"
    font-family="Arial, Helvetica, sans-serif"
    font-size="38"
    font-weight="600"
    fill="#172B4D"
  >
    Arogya
  </text>

  <!-- Tagline -->
  <text
    x="134"
    y="91"
    font-family="Arial, Helvetica, sans-serif"
    font-size="12"
    font-weight="500"
    letter-spacing="2"
    fill="#6B7C93"
  >
    SMARTER HEALTH • BETTER CARE
  </text>

</svg>